<svg xmlns="http://www.w3.org/2000/svg" viewBox="0 0 30 30"><defs><style>.cls-1{fill:#fff;}.cls-2{fill:#494949;}</style></defs><g id="Layer_2" data-name="Layer 2"><g id="Layer_5" data-name="Layer 5"><circle class="cls-1" cx="15" cy="15" r="15"/><path id="path2842" class="cls-2" d="M19.21,5.15l-.76.75A8.35,8.35,0,0,1,19.87,8a14.8,14.8,0,0,1,1.45,6.67,14.09,14.09,0,0,1-1.45,6.57,7.68,7.68,0,0,1-1.41,2l.78.7a9.8,9.8,0,0,0,1.84-2.46,14.83,14.83,0,0,0,1.51-6.82,15.42,15.42,0,0,0-1.51-6.93,10.57,10.57,0,0,0-1.87-2.62ZM17,7.28h0L16.15,8a6.33,6.33,0,0,1,1.11,1.62,10.87,10.87,0,0,1,1.14,5.05,10.46,10.46,0,0,1-1.14,5,5.44,5.44,0,0,1-1.1,1.53l.77.73a8.09,8.09,0,0,0,1.53-2,11.14,11.14,0,0,0,1.2-5.25,11.6,11.6,0,0,0-1.2-5.32A9.47,9.47,0,0,0,17,7.28ZM12.75,8a.8.8,0,0,0-.44.18,50.47,50.47,0,0,0-3.7,3.71H6.31v5.56h2.3a40.59,40.59,0,0,0,3.7,3.72c.85.55.68-.3.68-.67V8.84c0-.27.07-.82-.24-.84Zm1.7,1.3-.86.81a5.62,5.62,0,0,1,2,4.53,5.32,5.32,0,0,1-2,4.43l.84.9a7.29,7.29,0,0,0,2.44-5.33,7.3,7.3,0,0,0-2.43-5.33Z"/></g></g></svg>