<svg id="Capa_1" data-name="Capa 1" xmlns="http://www.w3.org/2000/svg" viewBox="0 0 53.94 53.94"><defs><style>.cls-1{fill:orange;}</style></defs><path class="cls-1" d="M53.36,40.91c-2-3.8-9-7.91-9.28-8.09A5.58,5.58,0,0,0,41.37,32a3.35,3.35,0,0,0-3,1.68,34.06,34.06,0,0,1-2.59,2.86C33.39,38.2,31.53,38,29.47,36L18,24.47c-2-2-2.24-3.93-.64-6.29a34.14,34.14,0,0,1,2.87-2.6,3.29,3.29,0,0,0,1.55-2,5,5,0,0,0-.65-3.73C21,9.56,16.83,2.58,13,.58A4.85,4.85,0,0,0,10.73,0,4.91,4.91,0,0,0,7.24,1.45L4.7,4C.69,8-.77,12.55.38,17.51c1,4.13,3.74,8.52,8.28,13.06L23.37,45.28c5.74,5.74,11.22,8.66,16.28,8.66h0c3.72,0,7.19-1.58,10.3-4.7l2.54-2.54A4.9,4.9,0,0,0,53.36,40.91Z" transform="translate(0 0)"/></svg>