<svg xmlns="http://www.w3.org/2000/svg" viewBox="0 0 1001.09 1001.09"><defs><style>.cls-1{fill:#494949;}.cls-2{fill:#fff;}.cls-3{fill:#cff800;}</style></defs><g id="Layer_2" data-name="Layer 2"><g id="Capa_1" data-name="Capa 1"><rect class="cls-1" width="1001.09" height="1001.09"/><polygon class="cls-2" points="534.5 442.86 497.68 404.86 460.85 442.86 410.5 494.84 410.5 636.96 473.27 636.96 473.27 554.44 522.08 554.44 522.08 636.96 584.85 636.96 584.85 494.84 534.5 442.86"/><path class="cls-3" d="M737.72,458.63l-1.21-1.26L698.27,417.9,660,457.37l-.75.77-51.56,53.21h50.8c-11.6,110-86.64,192-211.61,192-34.52,0-67.18-6.23-96.21-19.34,41.33,46.21,98.09,74.71,160.74,74.71,122.83,0,223.09-109.65,228.76-247.38h48.59Z"/><path class="cls-3" d="M490.42,257C367.59,257,267.33,366.6,261.66,504.33H213.07l51.07,52.72,1.21,1.26,38.24,39.47,38.24-39.47.74-.77,51.56-53.21H343.34c11.6-110,86.64-192,211.61-192,34.52,0,67.18,6.23,96.21,19.34C609.83,285.45,553.06,257,490.42,257"/><polygon class="cls-3" points="497.69 364.36 438.02 425.75 438.02 396.72 400.31 396.72 400.31 464.55 357.91 508.18 374.58 524.38 419.95 477.71 438.02 459.11 497.66 397.74 607.73 511.35 624.42 495.17 497.69 364.36"/><path class="cls-2" d="M141.49,484l10.24-.32.19,5.83,37.46-1.18-.18-5.83,10.34-.33,1.09,34.46a36.58,36.58,0,0,1-1.84,13.53,27.45,27.45,0,0,1-5.87,9.79,25.26,25.26,0,0,1-9,6.06,32.7,32.7,0,0,1-11.19,2.26,34.5,34.5,0,0,1-12-1.58,25.77,25.77,0,0,1-9.43-5.44,24.92,24.92,0,0,1-6.27-9.35,39.2,39.2,0,0,1-2.54-13.34Zm11,22.48.27,8.64a18.29,18.29,0,0,0,1.54,7.29,12.63,12.63,0,0,0,3.92,4.85,15.73,15.73,0,0,0,6.07,2.68,31.5,31.5,0,0,0,8,.65,30.12,30.12,0,0,0,7.61-1.14,15.78,15.78,0,0,0,5.73-3,12.32,12.32,0,0,0,3.56-5.09,18.4,18.4,0,0,0,1.08-7.32l-.27-8.74Z"/><path class="cls-2" d="M152.72,596.44a36.4,36.4,0,0,1-1.13-14.7,18.89,18.89,0,0,1,5.08-10.5,23.15,23.15,0,0,1,11.07-6l25.69-6.62L192,553.11l10-2.58,7.22,28-10,2.58-1.55-6-25.79,6.64a14.51,14.51,0,0,0-5.82,2.8,8.76,8.76,0,0,0-2.93,4.54,12,12,0,0,0,.16,6.08,13,13,0,0,0,2.85,5.6,9,9,0,0,0,4.8,2.7,14,14,0,0,0,6.45-.31l25.79-6.64-1.2-4.67,10-2.58,5.83,22.67-10,2.58L206.39,609l-25.59,6.59a24.05,24.05,0,0,1-12.65.25,18.47,18.47,0,0,1-9.45-6.45,34.22,34.22,0,0,1-6-12.93"/><polygon class="cls-2" points="167.34 643.86 176.31 638.89 179.08 643.9 211.87 625.74 209.1 620.73 218.15 615.71 231.98 640.68 210.78 667.12 244.25 662.84 257.54 686.84 248.49 691.85 245.71 686.84 212.92 705 215.7 710.01 206.73 714.98 193.39 690.89 202.35 685.92 205.08 690.85 233.65 675.02 190.25 680.45 186.64 673.94 214.18 639.86 185.6 655.68 188.33 660.6 179.37 665.57 167.34 643.86"/><path class="cls-2" d="M219.48,729.76l7.52-7,3.89,4.21,27.5-25.47-3.89-4.21,7.6-7,21.44,23.15q8.19,8.85,9.54,16.3t-5.51,13.8q-6.93,6.42-14.16,4.89t-15-9.85l-4.3-4.65,7.52-7,2.73,2.95a8.86,8.86,0,0,0,5.54,3.16,8.44,8.44,0,0,0,8.25-7.43,8.28,8.28,0,0,0-2.6-5.54l-5.6-6.05-27.5,25.47,4.37,4.72-7.52,7Z"/><path class="cls-2" d="M293.16,799.51a29.47,29.47,0,0,1-6.12-6.1,24,24,0,0,1-3.9-7.59,12,12,0,0,1,0-7.48l1.79,1.31-6,8.18-9.08-6.65,11.7-16,8.11,5.94a19.06,19.06,0,0,0-.37,7,17.57,17.57,0,0,0,2.22,6.49,17.77,17.77,0,0,0,4.93,5.35,8.69,8.69,0,0,0,5.12,1.94,5.07,5.07,0,0,0,4.16-2.37,6,6,0,0,0,1.32-3.33,6.36,6.36,0,0,0-1.08-3.54,32.21,32.21,0,0,0-3.42-4.43l-4.58-5q-6.34-7.15-7.37-13.5t3.56-12.59a16.9,16.9,0,0,1,7.29-5.87,16.16,16.16,0,0,1,9.07-.9,22.69,22.69,0,0,1,9.5,4.29,26.4,26.4,0,0,1,8.06,8.89,19.89,19.89,0,0,1,2.31,10.29l-1.87-1.37,4.93-6.73,8.51,6.24-10,13.7-7.79-5.7a15.79,15.79,0,0,0,0-4.86,15.1,15.1,0,0,0-1.82-5.25,15.44,15.44,0,0,0-4.52-4.88,8.26,8.26,0,0,0-4.86-1.87,4.56,4.56,0,0,0-3.75,2.05,5,5,0,0,0-.58,5c.71,1.86,2.37,4.19,5,7l2.42,2.65a35.1,35.1,0,0,1,6.65,9.29,15.57,15.57,0,0,1,1.44,8.66,19.07,19.07,0,0,1-3.83,8.71,18.28,18.28,0,0,1-7.81,6.42,17,17,0,0,1-9.38,1,23.1,23.1,0,0,1-9.89-4.44"/><polygon class="cls-2" points="335.65 824.6 339.99 815.31 345.91 818.08 361.92 783.85 352.63 779.5 347.78 789.88 337.85 785.24 346.96 765.76 400.68 790.88 391.57 810.36 381.64 805.72 386.5 795.34 377.3 791.04 361.29 825.27 367.21 828.04 362.87 837.32 335.65 824.6"/><polygon class="cls-2" points="391.01 848.51 393.37 838.54 398.95 839.85 407.55 803.37 401.98 802.05 404.36 791.98 457.86 804.61 453.24 824.17 442.97 821.74 445.21 812.26 424.18 807.29 421.13 820.2 429.94 822.28 431.28 816.61 439.49 818.55 434.62 839.18 426.4 837.25 427.75 831.57 418.94 829.5 415.6 843.68 437.01 848.73 439.49 838.27 449.75 840.69 444.91 861.23 391.01 848.51"/><path class="cls-2" d="M463.57,863.9l.19-10.25,5.73.1.68-37.47-5.73-.11.19-10.35,35.07.64a40.4,40.4,0,0,1,12.42,2,18.06,18.06,0,0,1,8.45,5.63q3,3.76,2.93,10.1a16.34,16.34,0,0,1-1.53,6.91,13.87,13.87,0,0,1-4.12,5,20.08,20.08,0,0,1-6.48,3.15l9.26,15.34,5.83.11L526.27,865l-18.39-.33L495,841l-4.22-.08.19-10.35,7.13.13a9.16,9.16,0,0,0,4.54-.87,6.2,6.2,0,0,0,2.61-2.56,8.4,8.4,0,0,0,.93-3.86,6.58,6.58,0,0,0-.8-3.38,5.68,5.68,0,0,0-2.52-2.31,9.55,9.55,0,0,0-4.1-.87l-11.46-.21-.68,37.48,5.42.09-.18,10.25Z"/><path class="cls-2" d="M578.92,857.37l-3.07-9.79,5.47-1.71-11.2-35.77-5.47,1.71-3.09-9.87L595,791.45a40.32,40.32,0,0,1,12.42-2,18.13,18.13,0,0,1,9.78,2.67q4.08,2.63,6,8.66a16.16,16.16,0,0,1,.73,7,13.76,13.76,0,0,1-2.32,6,19.86,19.86,0,0,1-5.16,5l13.65,11.63,5.56-1.74,3.09,9.88-17.55,5.49-19.78-18.44-4,1.26-3.09-9.88,6.8-2.13a9.13,9.13,0,0,0,4-2.27,6.14,6.14,0,0,0,1.67-3.25,8.38,8.38,0,0,0-.34-3.95,6.56,6.56,0,0,0-1.82-3,5.64,5.64,0,0,0-3.12-1.39,9.67,9.67,0,0,0-4.18.46L586.42,805l11.2,35.77,5.18-1.62,3.07,9.78Z"/><polygon class="cls-2" points="654.16 831.43 649.08 822.53 654.05 819.69 635.46 787.13 630.49 789.97 625.35 780.99 673.1 753.73 683.06 771.18 673.9 776.41 669.06 767.95 650.3 778.66 656.88 790.18 664.73 785.7 661.84 780.64 669.17 776.45 679.69 794.86 672.35 799.05 669.47 793.99 661.61 798.47 668.84 811.13 687.95 800.21 682.62 790.88 691.78 785.64 702.25 803.97 654.16 831.43"/><polygon class="cls-2" points="718.19 793.1 711.28 785.53 715.59 781.6 690.33 753.9 686.02 757.83 679.05 750.18 697.84 733.05 740.66 743.77 722.85 724.24 717.95 728.71 710.98 721.07 728.43 705.15 735.4 712.8 731.17 716.66 763.34 751.93 750.79 763.38 703.03 751.57 723.68 774.22 728.58 769.75 735.49 777.33 718.19 793.1"/><polygon class="cls-2" points="785.77 724.28 777.39 718.38 781.15 713.04 750.24 691.29 744.35 699.68 753.72 706.27 747.41 715.23 729.82 702.85 763.94 654.36 781.53 666.74 775.23 675.7 765.86 669.1 760.01 677.4 790.92 699.15 794.68 693.8 803.07 699.7 785.77 724.28"/><path class="cls-2" d="M818.61,675.94l-9.46-4,2.29-5.47L782.32,639l-2.17,5.2-9.55-4L786,603.28l9.55,4-2.21,5.29,40.13,1.19,2.25-5.37,9.46,4-11.4,27.26-9.46-4,2.48-5.94-10.73-.89-6.94,16.6,8.18,7,2.17-5.19,9.46,3.95Zm-17.2-37,4.65-11.12-18.35-1.69-.24.56Z"/><polygon class="cls-2" points="848.6 597.22 838.53 595.29 839.61 589.66 802.01 582.46 800.93 588.08 791.55 586.29 796.92 558.25 806.3 560.05 805.22 565.68 842.83 572.88 845.82 557.29 830.72 554.39 832.85 543.24 858.02 548.06 848.6 597.22"/><path class="cls-2" d="M860.55,503.2a29.76,29.76,0,0,1-1.39,8.53,23.65,23.65,0,0,1-3.89,7.6,11.94,11.94,0,0,1-6.07,4.37l0-2.21,10.15.09-.1,11.26-19.8-.18.09-10a18.94,18.94,0,0,0,5.87-3.77,17.19,17.19,0,0,0,5.44-12.71,8.64,8.64,0,0,0-1.41-5.29,5.09,5.09,0,0,0-4.35-2,6.2,6.2,0,0,0-3.48.87,6.44,6.44,0,0,0-2.24,3,31.66,31.66,0,0,0-1.6,5.36l-1.37,6.62q-2.08,9.33-6.66,13.86T817.46,533a16.92,16.92,0,0,1-9-2.49,16.24,16.24,0,0,1-6-6.84,22.77,22.77,0,0,1-2.07-10.22,26.45,26.45,0,0,1,2.52-11.74,19.88,19.88,0,0,1,7-7.87l0,2.31-8.35-.08.1-10.55,17,.15-.08,9.65a15.86,15.86,0,0,0-4,2.83A14.74,14.74,0,0,0,810,509.17a8.23,8.23,0,0,0,1.31,5,4.54,4.54,0,0,0,3.85,1.84,5,5,0,0,0,4.45-2.47,25,25,0,0,0,2.79-8.11l.73-3.51a35.62,35.62,0,0,1,3.66-10.82,15.71,15.71,0,0,1,6.19-6.23,19.13,19.13,0,0,1,9.32-2,18.23,18.23,0,0,1,9.77,2.6,17.08,17.08,0,0,1,6.27,7,23.35,23.35,0,0,1,2.17,10.62"/><polygon class="cls-2" points="232.94 375.8 219.64 367.12 224.49 359.68 175.85 327.93 171 335.36 157.56 326.59 181.74 289.55 195.18 298.32 190.24 305.88 238.88 337.64 243.82 330.08 257.12 338.76 232.94 375.8"/><polygon class="cls-2" points="260.23 329.29 249.7 317.39 256.47 311.4 217.97 267.9 211.21 273.88 200.58 261.87 230.09 235.76 296.21 253.37 269.07 222.69 261.37 229.5 250.74 217.49 278.15 193.24 288.78 205.25 282.13 211.13 331.15 266.54 311.44 283.98 237.71 264.58 269.18 300.15 276.88 293.34 287.41 305.24 260.23 329.29"/><path class="cls-2" d="M419.16,231.44q-10.8,2.37-19.14,0a28.72,28.72,0,0,1-13.44-7.9,26.37,26.37,0,0,1-6.64-12.5,18.54,18.54,0,0,1,.7-11,30.58,30.58,0,0,1,6.2-9.56,67.67,67.67,0,0,1,9.83-8.61,36.61,36.61,0,0,1-6.62-6.6,24.65,24.65,0,0,1-4.15-9.86,16,16,0,0,1,1-9.94,22.4,22.4,0,0,1,7.6-9,36.84,36.84,0,0,1,14.16-6q8.06-1.75,14.06-.2a21.58,21.58,0,0,1,9.73,5.12,15.55,15.55,0,0,1,4.7,8A19.49,19.49,0,0,1,436,165.51q-2.53,5.9-11.21,12.89l16.7,11.49a38.44,38.44,0,0,0,2.1-7.15,54.32,54.32,0,0,0,1-7.63c.14-2.52.25-4.81.34-6.85l24.35-5.32,2.92,13.39-10.61,2.48a50.48,50.48,0,0,1-1.27,7q-.9,3.56-2,7a49.78,49.78,0,0,1-2.85,7l8.71,5.59,13.85-3,3,13.85-28.45,6.22-8.15-6.66A39.66,39.66,0,0,1,434,225.5a44.17,44.17,0,0,1-14.8,5.94m-.4-15.69a20.89,20.89,0,0,0,7.25-2.94,16.69,16.69,0,0,0,5.23-6.33l-22.8-16a19.8,19.8,0,0,0-5.42,6.92,12.74,12.74,0,0,0-.7,8.12,13.8,13.8,0,0,0,2.61,5,15.29,15.29,0,0,0,5.63,4.59,12.24,12.24,0,0,0,8.2.68m-5.69-46.43c2.93-2.12,4.76-4.12,5.46-6a10.16,10.16,0,0,0,.37-6c-.49-2.23-1.43-3.76-2.83-4.57a6.6,6.6,0,0,0-4.84-.61q-3.5.76-4.61,2.6a6.09,6.09,0,0,0-.51,4.58,12.38,12.38,0,0,0,2.65,5.56,52.07,52.07,0,0,0,4.31,4.39"/><path class="cls-2" d="M585,233.12a63.4,63.4,0,0,1-19.18-9.05A44.84,44.84,0,0,1,553,210.41a43.5,43.5,0,0,1-5.81-17A46.94,46.94,0,0,1,549,174.33a47.66,47.66,0,0,1,8.83-17.05A43.84,43.84,0,0,1,572,145.94a46,46,0,0,1,18.21-4.79,61.07,61.07,0,0,1,21.06,2.62A62,62,0,0,1,630.48,153a46.21,46.21,0,0,1,12.79,13.91A43.25,43.25,0,0,1,649,184a51.38,51.38,0,0,1-10.63,36.16,42.7,42.7,0,0,1-14,11.22,45.06,45.06,0,0,1-18.14,4.56A64,64,0,0,1,585,233.12m5.1-17.33a22.12,22.12,0,0,0,10,.75,21.62,21.62,0,0,0,8.84-3.57,26.44,26.44,0,0,0,7.13-7.4,42,42,0,0,0,6.55-22.26,27,27,0,0,0-2-9.93,20.14,20.14,0,0,0-5.54-7.64,23.86,23.86,0,0,0-8.87-4.63,22.44,22.44,0,0,0-9.91-.81,21.54,21.54,0,0,0-8.72,3.44,26,26,0,0,0-7.09,7.25,42.07,42.07,0,0,0-6.55,22.26,26.94,26.94,0,0,0,2,10,21.2,21.2,0,0,0,14.18,12.53"/><path class="cls-2" d="M676.84,278.48q-10.86-7.85-15.93-16.39a29.21,29.21,0,0,1-4.34-17.54q.72-9,7.28-18.08l24-33.34-7.2-5.2,9.39-13,36.38,26.24-9.39,13-7.83-5.65L685.1,242a22.57,22.57,0,0,0-4.16,9.09,13.71,13.71,0,0,0,1,8.32,18.64,18.64,0,0,0,6.23,7.08,19.7,19.7,0,0,0,8.93,3.85,13.79,13.79,0,0,0,8.4-1.53,21.66,21.66,0,0,0,7.38-6.77L737,228.57,731,224.2l9.39-13,29.43,21.23-9.38,13-7.2-5.19-24,33.22q-6.65,9.23-14.82,12.83A28.49,28.49,0,0,1,696.78,288q-9.45-1.92-19.94-9.48"/><polygon class="cls-2" points="731.48 325.48 744.32 316.11 750.28 324.29 797.59 289.76 788.22 276.93 773.88 287.4 763.87 273.69 790.79 254.03 844.97 328.25 818.04 347.91 808.04 334.19 822.38 323.73 813.1 311.02 765.8 345.55 771.77 353.72 758.94 363.09 731.48 325.48"/></g></g></svg>